<?xml version="1.0" encoding="UTF-8"?>
<svg width="250px" height="257px" viewBox="0 0 250 257" version="1.1" xmlns="http://www.w3.org/2000/svg" xmlns:xlink="http://www.w3.org/1999/xlink">
    <!-- Generator: Sketch 46.2 (44496) - http://www.bohemiancoding.com/sketch -->
    <title>eggplant</title>
    <desc>Created with Sketch.</desc>
    <defs></defs>
    <g id="Page-1" stroke="none" stroke-width="1" fill="none" fill-rule="evenodd">
        <g id="eggplant">
            <g>
                <path d="M232.564324,42.7052432 C225.723251,115.956414 192.53163,162.141139 141.303285,210.016065 C111.516016,235.841829 73.3371059,264.938358 36.4307115,249.411982 C-5.9585153,231.578991 -5.817685,196.247145 9.03902132,169.982285 C33.2638467,127.155698 57.1573049,115.949508 96.5418807,91.717177 C124.11835,75.215757 137.290048,48.7449677 165.442785,28.0153673 C172.928577,22.8098693 193.601412,15.1079113 197.456788,14.0546301 C222.151571,14.6978968 226.076793,25.5683629 232.564324,42.7052432 L232.564324,42.7052432 Z" id="body" fill="#73348A"></path>
                <g id="stem" transform="translate(142.930951, 0.000000)">
                    <path d="M78.1650968,13.8679167 L76.788897,1.17754232 C74.847167,3.1201247 74.3655374,-1.01068844 68.0708193,0.240758571 L61.9809387,3.0106188 L57.500742,6.5319649 C57.500742,6.5319649 53.2372937,7.13757157 50.1642479,8.13513474 C47.0911805,9.13269792 38.1997059,8.34016342 29.9377946,15.4770487 C20.9791771,23.2155516 20.212175,30.7082346 0.845966717,24.6619474 L7.61869784,43.4653076 C7.61869784,43.4653076 18.6666929,50.8730624 22.4658366,49.0450473 C26.2649716,47.2170322 32.3548479,44.447172 32.3548479,44.447172 L20.2057821,55.8254057 C20.9243393,69.102857 52.1338451,53.9448038 47.8374403,56.3514458 C46.441529,58.7871265 61.5909191,74.5529739 61.5909191,74.5529739 C61.5909191,74.5529739 57.6590099,63.944284 59.6194421,57.6218516 C61.5809919,51.2957732 67.4342742,43.9313404 67.4342742,43.9313404 C67.4342742,43.9313404 67.5661605,64.7582221 70.0358557,68.5702543 C78.6322428,81.8389125 87.2951405,85.0434936 101.086929,80.7140428 L92.0434626,74.4451409 L108.675112,72.1103017 C101.759237,73.0568222 86.7793503,61.3429505 91.6887036,48.7452679 C93.7237458,32.0071213 96.4320145,23.7292814 78.1650968,13.8679167 L78.1650968,13.8679167 Z" id="path4461" fill="#92B147"></path>
                    <path d="M3.78610401,32.4012653 C22.8066533,47.047905 30.2733012,20.459074 51.3440303,21.3362364 C39.0784064,29.2803685 36.4094958,37.2245435 31.2894839,45.1686756 C24.242321,51.4411806 16.5528265,53.2930013 7.2240265,43.7500745 L3.78610401,32.4012653 Z" id="path6812" fill="#000000" opacity="0.12000002"></path>
                    <path d="M20.4027279,56.2337045 C33.1059371,59.4350257 41.7576038,53.0067761 50.7710461,47.4384031 L49.0520849,51.6942065 C50.756805,59.7128009 56.2214754,66.8005308 60.7983193,74.1080446 C55.4387205,68.4737879 49.8477295,62.8853838 48.1926021,56.5174418 C36.6270713,59.6527936 23.2334321,65.3528911 20.4027279,56.23349 L20.4027279,56.2337045 Z" id="path6814" fill="#000000" opacity="0.12000002"></path>
                    <path d="M67.38767,43.7500745 C72.1487693,41.0353747 70.556813,33.8860075 70.252604,27.57803 C83.5269522,47.8165481 65.0272607,49.5868291 85.150271,82.335914 C70.0616136,77.7964161 64.1407379,64.9344696 67.38767,43.7500745 L67.38767,43.7500745 Z" id="path6830" fill="#000000" opacity="0.12000002"></path>
                    <path d="M76.8307324,1.25419216 C75.2769344,8.67550112 69.9066591,12.3172908 64.2362418,15.6618319 C68.1218283,17.1683208 73.4040365,18.1962094 77.9879317,13.3920615 L76.8307324,1.25419216 Z" id="path6837" fill="#000000" opacity="0.12000002"></path>
                    <path d="M91.0390305,74.2384823 C81.7873309,63.9734084 82.0648032,54.2981136 81.1125452,44.5467267 C83.8414393,57.0913506 89.5949428,66.6406685 97.7242229,73.837218 L91.0390305,74.2384823 Z" id="path6853" fill="#000000" opacity="0.12000002"></path>
                </g>
            </g>
        </g>
    </g>
</svg>